<svg width="201" height="113" viewBox="0 0 201 113" fill="none" xmlns="http://www.w3.org/2000/svg">
<rect width="201" height="113" fill="white"/>
<g clip-path="url(#clip0_24_208)">
<path d="M172.801 55.9152C172.697 54.9626 172.533 54.017 172.31 53.0847L114.497 53.0345C114.756 50.8179 115.331 48.6486 116.206 46.5935C117.4 43.7558 119.152 41.184 121.36 39.0291C123.534 36.9385 126.103 35.2974 128.919 34.2011C133.446 32.2619 138.467 31.7694 143.287 32.7918C148.108 33.8143 152.489 36.3017 155.825 39.9087L164.955 31.0272C161.718 27.5582 157.789 24.7989 153.419 22.9258C148.591 20.9072 143.393 19.9109 138.156 20.0003C133.212 19.9705 128.31 20.8974 123.723 22.7294C119.331 24.4744 115.329 27.0609 111.942 30.3422C108.568 33.6536 105.868 37.5814 103.991 41.9099C102.449 45.4397 101.504 49.1987 101.193 53.0345H100.817C100.505 49.1983 99.5588 45.4391 98.0149 41.9099C96.1394 37.5805 93.4396 33.6524 90.0638 30.3422C86.6781 27.0599 82.6752 24.4733 78.2835 22.7294C68.7239 19.0192 58.0987 19.0863 48.5872 22.9167C44.2175 24.7909 40.2885 27.5501 37.0513 31.0181L46.1825 39.8996C49.6113 36.4317 53.9895 34.0412 58.7731 33.0266C63.5567 32.0119 68.5347 32.4174 73.0886 34.192C75.9048 35.2876 78.4737 36.9288 80.6465 39.02C82.8555 41.1742 84.6083 43.7462 85.8019 46.5844C86.6769 48.6393 87.2526 50.8078 87.5107 53.0244L29.6983 53.0756C29.4753 54.0078 29.3113 54.9525 29.2073 55.9052C29.0787 57.006 29.0157 58.1133 29.0189 59.2216C28.9934 63.5359 29.6931 67.8246 31.0888 71.9099C32.4603 75.874 34.6689 79.5005 37.5667 82.5459C40.7373 85.8832 44.5855 88.5122 48.856 90.2582C53.6309 92.1503 58.7371 93.0786 63.8766 92.9891C68.8192 93.019 73.7202 92.0915 78.306 90.2582C82.6987 88.5164 86.7021 85.9286 90.0863 82.6445C93.4635 79.3355 96.1639 75.4081 98.0379 71.0778C98.9982 68.8969 99.7251 66.6209 100.207 64.2888H101.846C102.328 66.6204 103.054 68.8962 104.011 71.0778C105.887 75.4072 108.587 79.3343 111.963 82.6445C115.348 85.9276 119.351 88.5153 123.743 90.2582C128.33 92.0913 133.233 93.0188 138.177 92.9891C143.315 93.0789 148.42 92.1506 153.193 90.2582C157.465 88.5135 161.313 85.8844 164.483 82.5459C167.381 79.5006 169.592 75.8741 170.965 71.9099C172.36 67.8245 173.059 63.5359 173.034 59.2216C173.021 58.1156 172.943 57.0122 172.801 55.9152ZM85.789 66.4051C84.591 69.2523 82.8197 71.8259 80.5844 73.9676C78.3873 76.0526 75.8039 77.6936 72.9774 78.7993C66.9537 81.0407 60.3238 81.0748 54.2769 78.8961C51.8377 77.9153 49.5937 76.5108 47.6501 74.7476C46.2658 73.4783 45.119 71.9747 44.2633 70.3069C43.2745 68.4078 42.5327 66.3914 42.056 64.3062H86.5699C86.3478 65.0193 86.0882 65.7206 85.7927 66.4069L85.789 66.4051ZM157.731 70.3069C156.875 71.9745 155.729 73.4781 154.345 74.7476C152.401 76.511 150.157 77.9155 147.718 78.8961C141.671 81.0748 135.041 81.0407 129.017 78.7993C126.191 77.6928 123.607 76.0519 121.408 73.9676C119.173 71.8261 117.403 69.2525 116.206 66.4051C115.909 65.7171 115.648 65.0141 115.425 64.2989H137.853H159.94C159.464 66.3871 158.722 68.4064 157.733 70.3087L157.731 70.3069Z" fill="#14213D"/>
</g>
<defs>
<clipPath id="clip0_24_208">
<rect width="144" height="73" fill="white" transform="translate(29 20)"/>
</clipPath>
</defs>
</svg>
