<svg width="50" height="50" viewBox="0 0 644 644" fill="none" xmlns="http://www.w3.org/2000/svg">
<circle cx="322" cy="322" r="322" fill="#F9F9F9"/>
<path d="M512.578 214.511C518.119 162.96 469.242 59.3134 354.043 62.0533C465.402 105.38 455.418 210.699 455.034 213.965C453.937 223.29 444.667 224.386 441.869 224.386C440.168 224.386 427.55 222.739 427.55 214.511C427.55 157.985 389.7 69.7334 289.312 63.1522C159.55 54.6454 129.984 175.528 132.421 214.511C134.615 249.611 136.261 288.548 232.809 346.131C349.811 415.913 299.186 387.197 348.557 417.973C360.874 425.65 374.812 432.231 375.985 458.006C377.159 483.782 353.494 499.685 353.494 499.685C353.494 499.685 449.838 511.537 428.648 417.973C421.963 388.458 353.439 353.009 299.186 320.356C245.426 288 196.604 270.999 188.924 214.511C181.244 158.024 243.781 114.642 289.312 119.088C334.843 123.535 371.597 164.607 371.597 214.511C371.597 249.062 406.705 287.998 454.979 279.224C458.217 278.635 507.038 266.064 512.578 214.511Z" fill="#3A86FF"/>
<path d="M132.422 429.489C126.881 481.04 175.758 584.687 290.957 581.947C179.598 538.62 189.582 433.301 189.966 430.035C191.063 420.71 200.333 419.614 203.131 419.614C204.832 419.614 217.45 421.261 217.45 429.489C217.45 486.015 255.3 574.267 355.688 580.848C485.45 589.355 515.016 468.472 512.579 429.489L512.524 428.61C510.351 393.738 507.935 354.972 412.191 297.869C295.189 228.087 345.814 256.803 296.443 226.027C284.126 218.35 270.188 211.769 269.015 185.994C267.841 160.218 291.506 144.314 291.506 144.314C291.506 144.314 195.162 132.463 216.352 226.027C223.037 255.542 291.561 290.991 345.814 323.644C399.574 356 448.396 373.001 456.076 429.489C463.756 485.976 401.219 529.358 355.688 524.912C310.157 520.465 273.403 479.393 273.403 429.489C273.403 394.938 238.295 356.002 190.021 364.776C186.783 365.365 137.962 377.936 132.422 429.489Z" fill="#3A86FF"/>
</svg>
